<?xml version="1.0" standalone="no"?>
<!DOCTYPE svg PUBLIC "-//W3C//DTD SVG 20010904//EN"
 "http://www.w3.org/TR/2001/REC-SVG-20010904/DTD/svg10.dtd">
<svg version="1.0" xmlns="http://www.w3.org/2000/svg"
 width="260.000000pt" height="260.000000pt" viewBox="0 0 260.000000 260.000000"
 preserveAspectRatio="xMidYMid meet">
<metadata>
Created by potrace 1.11, written by Peter Selinger 2001-2013
</metadata>
<g transform="translate(0.000000,260.000000) scale(0.100000,-0.100000)"
fill="#000000" stroke="none">
<path d="M1198 2389 c-526 -45 -952 -475 -996 -1006 -36 -427 161 -820 522
-1044 518 -320 1204 -153 1521 372 202 335 211 774 21 1113 -215 384 -628 603
-1068 565z m-319 -859 c109 -62 105 -189 -9 -247 -37 -19 -61 -23 -137 -23
l-93 0 0 -120 0 -120 -30 0 -30 0 0 263 c0 145 3 267 8 271 4 5 61 6 127 4
105 -3 126 -7 164 -28z m244 -165 c27 -104 52 -193 56 -197 3 -4 26 68 50 160
24 92 48 182 53 200 7 26 14 32 37 32 28 0 29 -2 61 -122 18 -68 42 -161 54
-207 l23 -85 17 65 c9 35 34 127 54 204 36 135 38 140 65 143 17 2 27 -1 27
-10 0 -7 -31 -128 -68 -268 -66 -248 -69 -255 -94 -258 -30 -4 -27 -12 -93
243 -20 77 -38 147 -42 155 -5 15 -15 -18 -83 -277 -32 -121 -33 -123 -61
-123 -16 0 -29 3 -29 6 0 4 -29 118 -65 256 -36 137 -65 256 -65 264 0 11 8
14 27 12 26 -3 28 -9 76 -193z m864 -65 c45 -140 83 -261 83 -267 0 -8 -12
-13 -29 -13 -27 0 -29 4 -51 80 l-23 80 -106 0 -107 0 -25 -77 c-24 -74 -27
-78 -57 -81 l-31 -3 19 58 c10 32 49 150 86 263 36 113 69 209 71 213 3 4 23
7 46 5 l41 -3 83 -255z"/>
<path d="M640 1405 l0 -95 69 0 c38 0 82 3 100 6 45 9 81 47 81 84 0 74 -43
100 -165 100 l-85 0 0 -95z"/>
<path d="M1817 1377 c-20 -62 -37 -118 -37 -125 0 -8 24 -12 80 -12 44 0 80 3
80 6 0 15 -75 244 -80 244 -3 0 -22 -51 -43 -113z"/>
</g>
</svg>
